<?xml version="1.0" standalone="no"?>
<svg xmlns="http://www.w3.org/2000/svg" viewBox="0 0 171.00390625 52" width="171.00390625" height="52"><rect fill="none" stroke="#f1333f" stroke-width="3" width="168.00390625" height="49" x="1.5" y="1.5"></rect><g fill="#353434" color="#353434" transform="translate(12, 12) scale(0.4375)"><svg width="64.0" height="64.0" x="0.0" y="0.0" viewBox="0 0 64 64"><title></title><g><rect x="32" y="56" width="2" height="2"></rect><rect x="28" y="56" width="2" height="2"></rect><path d="M58,32h1a1,1,0,0,0,1-1V25a1,1,0,0,0-1-1H50V16h1a1,1,0,0,0,1-1V9a1,1,0,0,0-1-1H13a1,1,0,0,0-1,1v6a1,1,0,0,0,1,1h1V40H5a1,1,0,0,0-1,1v6a1,1,0,0,0,1,1H6V60H2v2H62V60H58Zm0-2H47V26H58ZM39,32h6v4H39Zm0-2V26h6v4ZM26,30V26H37v4ZM50,14H37V10H50ZM29,16h6v4H29Zm0-2V10h6v4ZM14,10H27v4H14Zm2,6H27v5a1,1,0,0,0,1,1h8a1,1,0,0,0,1-1V16H48v8H25a1,1,0,0,0-1,1v6a1,1,0,0,0,1,1h1v8H16ZM27,46V42H38v4Zm-8,2h6v4H19Zm0-2V42h6v4ZM6,42H17v4H6ZM8,60V48h9v5a1,1,0,0,0,1,1h8a1,1,0,0,0,1-1V48h9V60Zm30,0V48h1a1,1,0,0,0,1-1V41a1,1,0,0,0-1-1H28V32h9v5a1,1,0,0,0,1,1h8a1,1,0,0,0,1-1V32h9V60Z"></path><rect x="52" y="56" width="2" height="2"></rect><rect x="48" y="56" width="2" height="2"></rect><rect x="60" y="38" width="2" height="15"></rect><rect x="10" y="19" width="2" height="16"></rect><rect x="23" y="4" width="22" height="2"></rect><rect x="47" y="4" width="2" height="2"></rect></g></svg></g><path fill="#353434" fill-rule="nonzero" d="M1.91 1.82L0 1.49L0 0L6.13 0L6.13 1.49L4.22 1.82L4.22 15.26L6.13 15.59L6.13 17.06L0 17.06L0 15.59L1.91 15.26L1.91 1.82ZM24.22 10.31L24.45 3.40L24.39 3.39L18.87 17.06L17.33 17.06L11.81 3.40L11.75 3.41L11.99 10.31L11.99 15.26L13.90 15.59L13.90 17.06L7.77 17.06L7.77 15.59L9.68 15.26L9.68 1.82L7.77 1.49L7.77 0L9.68 0L12.63 0L18.07 13.86L18.14 13.86L23.57 0L28.44 0L28.44 1.49L26.53 1.82L26.53 15.26L28.44 15.59L28.44 17.06L22.31 17.06L22.31 15.59L24.22 15.26L24.22 10.31ZM41.60 17.06L38.58 17.06Q38.47 16.55 38.41 16.14Q38.36 15.73 38.33 15.32L38.33 15.32Q37.66 16.17 36.66 16.74Q35.66 17.31 34.52 17.31L34.52 17.31Q32.54 17.31 31.51 16.34Q30.48 15.38 30.48 13.62L30.48 13.62Q30.48 11.81 31.94 10.83Q33.40 9.86 35.94 9.86L35.94 9.86L38.32 9.86L38.32 8.38Q38.32 7.27 37.62 6.62Q36.91 5.96 35.66 5.96L35.66 5.96Q34.79 5.96 34.13 6.19Q33.47 6.41 33.06 6.80L33.06 6.80L32.81 8.13L31.03 8.13L31.03 5.67Q31.90 4.98 33.13 4.56Q34.36 4.15 35.80 4.15L35.80 4.15Q37.96 4.15 39.29 5.25Q40.63 6.35 40.63 8.40L40.63 8.40L40.63 14.51Q40.63 14.75 40.63 14.99Q40.64 15.22 40.66 15.46L40.66 15.46L41.60 15.59L41.60 17.06ZM34.86 15.38L34.86 15.38Q36.01 15.38 36.96 14.82Q37.91 14.27 38.32 13.50L38.32 13.50L38.32 11.41L35.86 11.41Q34.44 11.41 33.62 12.07Q32.79 12.73 32.79 13.66L32.79 13.66Q32.79 14.50 33.30 14.94Q33.82 15.38 34.86 15.38ZM43.18 17.06L43.18 15.59L45.09 15.26L45.09 6.20L43.18 5.87L43.18 4.38L47.16 4.38L47.32 6.27Q47.95 5.26 48.91 4.71Q49.86 4.15 51.08 4.15L51.08 4.15Q53.13 4.15 54.26 5.35Q55.38 6.55 55.38 9.06L55.38 9.06L55.38 15.26L57.29 15.59L57.29 17.06L51.16 17.06L51.16 15.59L53.07 15.26L53.07 9.11Q53.07 7.43 52.41 6.73Q51.75 6.02 50.39 6.02L50.39 6.02Q49.39 6.02 48.63 6.50Q47.86 6.98 47.40 7.82L47.40 7.82L47.40 15.26L49.31 15.59L49.31 17.06L43.18 17.06ZM70.27 17.06L67.24 17.06Q67.14 16.55 67.08 16.14Q67.02 15.73 67.00 15.32L67.00 15.32Q66.33 16.17 65.33 16.74Q64.32 17.31 63.19 17.31L63.19 17.31Q61.21 17.31 60.18 16.34Q59.14 15.38 59.14 13.62L59.14 13.62Q59.14 11.81 60.60 10.83Q62.06 9.86 64.61 9.86L64.61 9.86L66.98 9.86L66.98 8.38Q66.98 7.27 66.28 6.62Q65.58 5.96 64.32 5.96L64.32 5.96Q63.46 5.96 62.79 6.19Q62.13 6.41 61.72 6.80L61.72 6.80L61.48 8.13L59.70 8.13L59.70 5.67Q60.56 4.98 61.79 4.56Q63.02 4.15 64.46 4.15L64.46 4.15Q66.62 4.15 67.96 5.25Q69.29 6.35 69.29 8.40L69.29 8.40L69.29 14.51Q69.29 14.75 69.30 14.99Q69.30 15.22 69.33 15.46L69.33 15.46L70.27 15.59L70.27 17.06ZM63.53 15.38L63.53 15.38Q64.68 15.38 65.63 14.82Q66.57 14.27 66.98 13.50L66.98 13.50L66.98 11.41L64.52 11.41Q63.11 11.41 62.28 12.07Q61.45 12.73 61.45 13.66L61.45 13.66Q61.45 14.50 61.97 14.94Q62.48 15.38 63.53 15.38ZM72.20 11.20L72.20 10.96Q72.20 7.90 73.54 6.02Q74.87 4.15 77.23 4.15L77.23 4.15Q78.42 4.15 79.32 4.62Q80.23 5.09 80.84 5.98L80.84 5.98L81.05 4.38L82.99 4.38L82.99 16.90Q82.99 19.36 81.62 20.77Q80.25 22.18 77.72 22.18L77.72 22.18Q76.80 22.18 75.74 21.93Q74.67 21.68 73.86 21.25L73.86 21.25L74.46 19.45Q75.11 19.79 75.98 20.02Q76.86 20.24 77.70 20.24L77.70 20.24Q79.24 20.24 79.96 19.37Q80.68 18.50 80.68 16.90L80.68 16.90L80.68 15.69Q80.06 16.49 79.20 16.90Q78.33 17.31 77.20 17.31L77.20 17.31Q74.87 17.31 73.54 15.62Q72.20 13.93 72.20 11.20L72.20 11.20ZM74.51 10.96L74.51 11.20Q74.51 13.11 75.32 14.27Q76.13 15.43 77.78 15.43L77.78 15.43Q78.82 15.43 79.52 14.96Q80.23 14.48 80.68 13.62L80.68 13.62L80.68 7.78Q80.24 6.97 79.52 6.50Q78.81 6.02 77.80 6.02L77.80 6.02Q76.15 6.02 75.33 7.41Q74.51 8.79 74.51 10.96L74.51 10.96ZM91.56 17.31L91.56 17.31Q88.91 17.31 87.35 15.54Q85.78 13.78 85.78 10.97L85.78 10.97L85.78 10.45Q85.78 7.75 87.39 5.95Q89.00 4.15 91.21 4.15L91.21 4.15Q93.76 4.15 95.08 5.70Q96.40 7.24 96.40 9.82L96.40 9.82L96.40 11.26L88.17 11.26L88.14 11.32Q88.17 13.15 89.06 14.33Q89.95 15.50 91.56 15.50L91.56 15.50Q92.73 15.50 93.62 15.17Q94.50 14.84 95.14 14.25L95.14 14.25L96.05 15.75Q95.37 16.41 94.25 16.86Q93.13 17.31 91.56 17.31ZM91.21 5.96L91.21 5.96Q90.05 5.96 89.23 6.94Q88.41 7.92 88.22 9.40L88.22 9.40L88.24 9.46L94.09 9.46L94.09 9.15Q94.09 7.79 93.36 6.88Q92.64 5.96 91.21 5.96ZM100.58 6.20L98.67 5.87L98.67 4.38L102.64 4.38L102.87 6.22Q103.41 5.25 104.20 4.70Q104.99 4.15 106.01 4.15L106.01 4.15Q106.28 4.15 106.56 4.19Q106.85 4.23 107.00 4.28L107.00 4.28L106.70 6.42L105.39 6.35Q104.47 6.35 103.85 6.78Q103.23 7.21 102.89 7.98L102.89 7.98L102.89 15.26L104.80 15.59L104.80 17.06L98.67 17.06L98.67 15.59L100.58 15.26L100.58 6.20Z" transform="translate(52 17.46875)"></path></svg>