<?xml version="1.0" encoding="UTF-8" standalone="no"?>
<!DOCTYPE svg PUBLIC "-//W3C//DTD SVG 1.1//EN" "http://www.w3.org/Graphics/SVG/1.1/DTD/svg11.dtd">
<svg width="100%" height="100%" viewBox="0 0 52 52" version="1.1" xmlns="http://www.w3.org/2000/svg" xmlns:xlink="http://www.w3.org/1999/xlink" xml:space="preserve" xmlns:serif="http://www.serif.com/" style="fill-rule:evenodd;clip-rule:evenodd;stroke-linejoin:round;stroke-miterlimit:1.41421;">
    <path d="M48.5,32C49.302,32.053 49.947,32.698 50,33.5L50,42.35C50,45.45 48.5,47 45.5,47L36.5,47C35.65,47 34.95,46.3 34.95,45.45C34.95,44.6 35.65,43.9 36.5,43.9L44.75,43.9C46.41,43.9 47,43.29 47,41.58L47,33.5C47.053,32.698 47.698,32.053 48.5,32ZM3.5,32C4.302,32.053 4.947,32.698 5,33.5L5,41.58C5,43.29 5.59,43.9 7.25,43.9L15.5,43.9C16.35,43.9 17.05,44.6 17.05,45.45C17.05,46.3 16.35,47 15.5,47L6.5,47C3.5,47 2,45.45 2,42.35L2,33.5C2.053,32.698 2.698,32.053 3.5,32ZM20.17,14C20.9,14 21.5,14.45 21.5,15L21.5,37C21.5,37.55 20.9,38 20.17,38L16.83,38C16.1,38 15.5,37.55 15.5,37L15.5,15C15.5,14.45 16.1,14 16.83,14L20.17,14ZM11.5,14C12.049,14 12.5,14.451 12.5,15L12.5,37C12.5,37.549 12.049,38 11.5,38L10.5,38C9.951,38 9.5,37.549 9.5,37L9.5,15C9.5,14.451 9.951,14 10.5,14L11.5,14ZM26.5,14C27.049,14 27.5,14.451 27.5,15L27.5,37C27.5,37.549 27.049,38 26.5,38L25.5,38C24.951,38 24.5,37.549 24.5,37L24.5,15C24.5,14.451 24.951,14 25.5,14L26.5,14ZM41.5,14C42.049,14 42.5,14.451 42.5,15L42.5,37C42.5,37.549 42.049,38 41.5,38L40.5,38C39.951,38 39.5,37.549 39.5,37L39.5,15C39.5,14.451 39.951,14 40.5,14L41.5,14ZM35.17,14C35.9,14 36.5,14.45 36.5,15L36.5,37C36.5,37.55 35.9,38 35.17,38L31.83,38C31.1,38 30.5,37.55 30.5,37L30.5,15C30.5,14.45 31.1,14 31.83,14L35.17,14ZM45.5,5C48.5,5 50,6.55 50,9.65L50,18.5C50,19.323 49.323,20 48.5,20C47.677,20 47,19.323 47,18.5L47,10.42C47,8.71 46.41,8.1 44.75,8.1L36.5,8.1C35.65,8.1 34.95,7.4 34.95,6.55C34.95,5.7 35.65,5 36.5,5L45.5,5ZM15.5,5C16.35,5 17.05,5.7 17.05,6.55C17.05,7.4 16.35,8.1 15.5,8.1L7.25,8.1C5.59,8.1 5,8.71 5,10.42L5,18.5C4.947,19.302 4.302,19.947 3.5,20C2.698,19.947 2.053,19.302 2,18.5L2,9.65C2,6.55 3.5,5 6.5,5L15.5,5Z" style="fill:rgb(241,51,63);fill-rule:nonzero;"/>
</svg>
