<?xml version="1.0" encoding="UTF-8" standalone="no"?>
<!DOCTYPE svg PUBLIC "-//W3C//DTD SVG 1.1//EN" "http://www.w3.org/Graphics/SVG/1.1/DTD/svg11.dtd">
<svg width="100%" height="100%" viewBox="0 0 512 512" version="1.1" xmlns="http://www.w3.org/2000/svg" xmlns:xlink="http://www.w3.org/1999/xlink" xml:space="preserve" xmlns:serif="http://www.serif.com/" style="fill-rule:evenodd;clip-rule:evenodd;stroke-linejoin:round;stroke-miterlimit:1.41421;">
    <g>
        <path d="M213.223,234.382L166.874,234.382C162.408,234.382 158.79,238.002 158.79,242.466C158.79,246.931 162.408,250.55 166.874,250.55L213.223,250.55C217.689,250.55 221.307,246.93 221.307,242.466C221.307,238.001 217.688,234.382 213.223,234.382Z" style="fill:rgb(241,51,63);fill-rule:nonzero;"/>
        <path d="M409.6,480.142L455.949,480.142C460.415,480.142 464.033,476.524 464.033,472.058C464.033,467.593 460.414,463.974 455.949,463.974L409.6,463.974C405.134,463.974 401.516,467.594 401.516,472.058C401.516,476.523 405.134,480.142 409.6,480.142Z" style="fill:rgb(241,51,63);fill-rule:nonzero;"/>
        <path d="M151.983,79.165L198.332,79.165C202.798,79.165 206.416,75.545 206.416,71.081C206.416,66.616 202.797,62.997 198.332,62.997L151.983,62.997C147.517,62.997 143.899,66.617 143.899,71.081C143.899,75.545 147.517,79.165 151.983,79.165Z" style="fill:rgb(241,51,63);fill-rule:nonzero;"/>
        <path d="M213.223,261.329L166.874,261.329C162.408,261.329 158.79,264.948 158.79,269.413C158.79,273.878 162.408,277.497 166.874,277.497L213.223,277.497C217.689,277.497 221.307,273.878 221.307,269.413C221.307,264.949 217.688,261.329 213.223,261.329Z" style="fill:rgb(241,51,63);fill-rule:nonzero;"/>
        <path d="M166.873,448.883L213.222,448.883C217.688,448.883 221.306,445.264 221.306,440.799C221.306,436.334 217.688,432.715 213.222,432.715L166.873,432.715C162.407,432.715 158.789,436.335 158.789,440.799C158.789,445.264 162.409,448.883 166.873,448.883Z" style="fill:rgb(241,51,63);fill-rule:nonzero;"/>
        <path d="M166.873,475.83L213.222,475.83C217.688,475.83 221.306,472.212 221.306,467.746C221.306,463.281 217.688,459.662 213.222,459.662L166.873,459.662C162.407,459.662 158.789,463.282 158.789,467.746C158.789,472.212 162.409,475.83 166.873,475.83Z" style="fill:rgb(241,51,63);fill-rule:nonzero;"/>
        <path d="M497.795,400.982L441.261,400.982L441.261,315.284C441.261,310.818 437.643,307.2 433.177,307.2C428.711,307.2 425.093,310.818 425.093,315.284L425.093,400.982L362.504,400.982C354.671,400.982 348.299,407.353 348.299,415.187L348.299,495.832L256.468,495.832C255.759,495.832 255.182,495.254 255.182,494.545L255.182,490.981L255.182,316.359L255.182,290.489L255.182,198.573C255.182,197.863 255.759,197.286 256.468,197.286L304.028,197.286L304.028,289.447C304.028,292.546 305.8,295.372 308.589,296.723C311.376,298.074 314.694,297.711 317.125,295.79L340.138,277.6L363.151,295.79C364.606,296.94 366.378,297.532 368.164,297.532C369.362,297.532 370.567,297.266 371.687,296.724C374.477,295.373 376.248,292.547 376.248,289.448L376.248,197.287L423.806,197.287C424.516,197.287 425.094,197.865 425.094,198.574L425.094,288.338C425.094,292.804 428.712,296.422 433.178,296.422C437.644,296.422 441.262,292.803 441.262,288.338L441.262,198.574C441.262,188.948 433.43,181.119 423.806,181.119L368.164,181.119L312.114,181.119L256.47,181.119C256.036,181.119 255.61,181.152 255.184,181.184L255.184,115.869C255.184,112.026 254.13,108.433 252.322,105.329C254.11,102.953 255.184,100.011 255.184,96.815L255.184,41.439L255.184,14.203C255.181,6.371 248.809,0 240.977,0L105.684,0C97.852,0 91.482,6.371 91.482,14.203L91.482,94.85L21.019,94.85C9.429,94.849 0,104.279 0,115.868L0,290.49C0,295.369 1.686,299.854 4.486,303.425C1.686,306.995 0,311.48 0,316.359L0,490.981C0,502.571 9.429,512 21.019,512L184.5,512C188.966,512 192.584,508.382 192.584,503.916C192.584,499.45 188.966,495.832 184.5,495.832L21.019,495.832C18.345,495.832 16.168,493.656 16.168,490.981L16.168,316.359C16.168,313.684 18.344,311.508 21.019,311.508L91.482,311.508L91.482,403.669C91.482,406.768 93.254,409.594 96.043,410.945C98.83,412.296 102.148,411.933 104.579,410.012L127.592,391.823L150.605,410.012C152.06,411.162 153.832,411.754 155.618,411.754C156.816,411.754 158.021,411.488 159.141,410.946C161.931,409.595 163.702,406.769 163.702,403.67L163.702,311.509L234.163,311.509C236.837,311.509 239.014,313.684 239.014,316.36L239.014,490.982C239.014,493.656 236.838,495.833 234.163,495.833L212.168,495.833C207.702,495.833 204.084,499.452 204.084,503.917C204.084,508.383 207.702,512.001 212.168,512.001L234.163,512.001C238.508,512.001 242.549,510.675 245.903,508.408C248.84,510.652 252.494,512.001 256.467,512.001L362.329,512C362.386,512 362.442,512 362.5,512L362.502,511.999L497.795,511.999C505.628,511.999 511.999,505.629 511.999,497.797L511.999,442.422L511.999,415.186C512,407.354 505.629,400.982 497.795,400.982ZM320.196,197.285L360.078,197.285L360.078,272.752L345.149,260.953C343.681,259.792 341.908,259.211 340.137,259.211C338.366,259.211 336.593,259.792 335.125,260.953L320.196,272.752L320.196,197.285ZM107.65,111.017L147.532,111.017L147.532,186.484L132.603,174.684C131.135,173.522 129.362,172.942 127.591,172.942C125.82,172.942 124.047,173.523 122.579,174.684L107.65,186.484L107.65,111.017ZM147.533,386.975L132.604,375.176C131.136,374.015 129.363,373.434 127.592,373.434C125.821,373.434 124.048,374.015 122.58,375.176L107.651,386.975L107.651,311.508L147.533,311.508L147.533,386.975ZM239.012,198.573L239.012,290.489C239.012,293.163 236.836,295.34 234.161,295.34L155.616,295.34L99.566,295.34L21.019,295.34C18.345,295.34 16.168,293.164 16.168,290.489L16.168,115.867C16.168,113.193 18.344,111.016 21.019,111.016L91.482,111.016L91.482,203.177C91.482,206.276 93.254,209.102 96.043,210.453C98.83,211.805 102.148,211.441 104.579,209.52L127.592,191.331L150.605,209.52C152.06,210.67 153.832,211.262 155.618,211.262C156.816,211.262 158.021,210.996 159.141,210.454C161.931,209.103 163.702,206.277 163.702,203.178L163.702,111.017L234.163,111.017C236.837,111.017 239.014,113.193 239.014,115.868L239.014,198.573L239.012,198.573ZM239.012,94.848L234.161,94.848L155.616,94.848L107.65,94.848L107.65,49.523L239.012,49.523L239.012,94.848ZM239.012,33.354L107.65,33.354L107.65,16.168L239.012,16.168L239.012,33.354ZM495.832,495.831L364.467,495.831L364.467,450.507L495.831,450.507L495.831,495.831L495.832,495.831ZM495.832,434.338L364.467,434.338L364.467,417.151L495.831,417.151L495.831,434.338L495.832,434.338Z" style="fill:rgb(241,51,63);fill-rule:nonzero;"/>
    </g>
</svg>
