<svg xmlns="http://www.w3.org/2000/svg" width="300" height="300" viewBox="0 0 300 300" version="1.1">
	<path d="M 127 79.500 L 127 82 155.500 82 L 184 82 184 79.500 L 184 77 155.500 77 L 127 77 127 79.500 M 189 79.500 C 189 81.500, 189.500 82, 191.500 82 C 193.500 82, 194 81.500, 194 79.500 C 194 77.500, 193.500 77, 191.500 77 C 189.500 77, 189 77.500, 189 79.500 M 99.649 88.268 C 98.185 89.338, 97.961 90.933, 98.208 98.518 C 98.483 106.968, 98.633 107.519, 100.750 107.820 L 103 108.139 103 139.540 L 103 170.940 90.250 171.220 L 77.500 171.500 77.214 181.222 C 76.930 190.894, 76.941 190.947, 79.464 191.580 L 82 192.217 82 207.608 L 82 223 77 223 C 72.333 223, 72 223.167, 72 225.500 L 72 228 150 228 L 228 228 228 225.500 C 228 223.167, 227.667 223, 223 223 L 218 223 218 186.500 C 218 151.354, 218.070 150, 219.893 150 C 220.934 150, 222.059 149.288, 222.393 148.418 C 223.509 145.511, 223.051 131.451, 221.800 130.200 C 221.002 129.402, 216.644 129, 208.800 129 L 197 129 197 118.570 C 197 108.514, 197.081 108.128, 199.250 107.820 C 201.367 107.519, 201.517 106.968, 201.792 98.518 C 202.039 90.933, 201.815 89.338, 200.351 88.268 C 197.829 86.423, 102.171 86.423, 99.649 88.268 M 103 98 L 103 103 120 103 L 137 103 137 98 L 137 93 120 93 L 103 93 103 98 M 142 98 L 142 103 150 103 L 158 103 158 98 L 158 93 150 93 L 142 93 142 98 M 163 98 L 163 103 180 103 L 197 103 197 98 L 197 93 180 93 L 163 93 163 98 M 108.667 108.667 C 108.300 109.033, 108 123.208, 108 140.167 L 108 171 121 171 L 134 171 134 160.570 C 134 150.514, 133.919 150.128, 131.750 149.820 C 129.636 149.519, 129.482 148.964, 129.210 140.651 C 129.024 134.987, 129.338 131.298, 130.082 130.401 C 131.033 129.256, 136.798 129, 161.657 129 L 192.070 129 191.785 118.750 L 191.500 108.500 177.293 108.223 L 163.085 107.946 162.793 115.723 L 162.500 123.500 150 123.500 L 137.500 123.500 137.208 115.750 L 136.916 108 123.125 108 C 115.539 108, 109.033 108.300, 108.667 108.667 M 142 113.458 L 142 119 150.052 119 L 158.105 119 157.802 113.750 L 157.500 108.500 149.750 108.208 L 142 107.916 142 113.458 M 93 137 L 93 158 95.500 158 L 98 158 98 137 L 98 116 95.500 116 L 93 116 93 137 M 134.667 134.667 C 134.300 135.033, 134 137.508, 134 140.167 L 134 145 148.500 145 L 163 145 163 139.500 L 163 134 149.167 134 C 141.558 134, 135.033 134.300, 134.667 134.667 M 168 139.458 L 168 145 176.052 145 L 184.105 145 183.802 139.750 L 183.500 134.500 175.750 134.208 L 168 133.916 168 139.458 M 189 139.473 L 189 145 203.552 145 L 218.105 145 217.802 139.750 L 217.500 134.500 203.250 134.223 L 189 133.945 189 139.473 M 140 160.474 L 140 170.948 155.250 171.224 L 170.500 171.500 170.500 181 C 170.500 189.893, 170.356 190.563, 168.250 191.487 C 166.058 192.449, 166 192.868, 166 207.737 L 166 223 189 223 L 212 223 212 186.500 L 212 150 200.500 150 L 189 150 189 156.800 C 189 160.756, 188.498 164.102, 187.800 164.800 C 186.541 166.059, 167.578 166.543, 164.582 165.393 C 163.337 164.915, 163 163.212, 163 157.393 L 163 150 151.500 150 L 140 150 140 160.474 M 168 155 L 168 160 176 160 L 184 160 184 155 L 184 150 176 150 L 168 150 168 155 M 223 185.500 L 223 205 225.500 205 L 228 205 228 185.500 L 228 166 225.500 166 L 223 166 223 185.500 M 82 181 L 82 186 96.500 186 L 111 186 111 181 L 111 176 96.500 176 L 82 176 82 181 M 116 181 L 116 186 124 186 L 132 186 132 181 L 132 176 124 176 L 116 176 116 181 M 137 181 L 137 186 151.500 186 L 166 186 166 181 L 166 176 151.500 176 L 137 176 137 181 M 88 207.500 L 88 223 124 223 L 160 223 160 207.500 L 160 192 148.544 192 L 137.088 192 136.794 199.250 L 136.500 206.500 124 206.500 L 111.500 206.500 111.206 199.250 L 110.912 192 99.456 192 L 88 192 88 207.500 M 116 197 L 116 202 124 202 L 132 202 132 197 L 132 192 124 192 L 116 192 116 197 M 140 214.930 C 140 217.559, 140.369 218, 142.566 218 C 144.776 218, 145.089 217.618, 144.816 215.250 C 144.590 213.281, 143.861 212.409, 142.250 212.180 C 140.336 211.909, 140 212.319, 140 214.930 M 150 215 C 150 217.533, 150.389 218, 152.500 218 C 154.611 218, 155 217.533, 155 215 C 155 212.467, 154.611 212, 152.500 212 C 150.389 212, 150 212.467, 150 215 M 192 214.930 C 192 217.559, 192.369 218, 194.566 218 C 196.776 218, 197.089 217.618, 196.816 215.250 C 196.590 213.281, 195.861 212.409, 194.250 212.180 C 192.336 211.909, 192 212.319, 192 214.930 M 202.667 212.667 C 202.300 213.033, 202 214.383, 202 215.667 C 202 217.489, 202.548 218, 204.500 218 C 206.611 218, 207 217.533, 207 215 C 207 212.758, 206.537 212, 205.167 212 C 204.158 212, 203.033 212.300, 202.667 212.667" stroke="none" fill="black" fill-rule="evenodd"/>
</svg>